<mxfile host="Electron" modified="2023-05-05T10:45:08.075Z" agent="Mozilla/5.0 (X11; Linux x86_64) AppleWebKit/537.36 (KHTML, like Gecko) draw.io/21.2.1 Chrome/112.0.5615.87 Electron/24.1.2 Safari/537.36" etag="QuJ64xSmLzfnPWFUFuKv" version="21.2.1" type="device">
  <diagram name="第 1 页" id="iAU3yH5nO_GJqzfUaLiA">
    <mxGraphModel dx="1120" dy="753" grid="1" gridSize="10" guides="1" tooltips="1" connect="1" arrows="1" fold="1" page="1" pageScale="1" pageWidth="827" pageHeight="1169" math="0" shadow="0">
      <root>
        <mxCell id="0" />
        <mxCell id="1" parent="0" />
        <mxCell id="uWKodNDqM7YWHI50KPKD-1" value="" style="rounded=1;whiteSpace=wrap;html=1;fillColor=#ffe6cc;strokeColor=#d79b00;movable=1;resizable=1;rotatable=1;deletable=1;editable=1;locked=0;connectable=1;shadow=0;" parent="1" vertex="1">
          <mxGeometry x="410" y="170" width="380" height="100" as="geometry" />
        </mxCell>
        <mxCell id="uWKodNDqM7YWHI50KPKD-2" value="" style="rounded=1;whiteSpace=wrap;html=1;fillColor=#ffe6cc;strokeColor=#d79b00;movable=1;resizable=1;rotatable=1;deletable=1;editable=1;locked=0;connectable=1;shadow=0;" parent="1" vertex="1">
          <mxGeometry x="40" y="170" width="330" height="100" as="geometry" />
        </mxCell>
        <mxCell id="uWKodNDqM7YWHI50KPKD-3" value="obj" style="rounded=0;whiteSpace=wrap;html=1;shadow=0;" parent="1" vertex="1">
          <mxGeometry x="193" y="200" width="40" height="30" as="geometry" />
        </mxCell>
        <mxCell id="uWKodNDqM7YWHI50KPKD-4" value="obj" style="rounded=0;whiteSpace=wrap;html=1;shadow=0;" parent="1" vertex="1">
          <mxGeometry x="233" y="200" width="40" height="30" as="geometry" />
        </mxCell>
        <mxCell id="uWKodNDqM7YWHI50KPKD-5" value="obj" style="rounded=0;whiteSpace=wrap;html=1;shadow=0;" parent="1" vertex="1">
          <mxGeometry x="273" y="200" width="40" height="30" as="geometry" />
        </mxCell>
        <mxCell id="uWKodNDqM7YWHI50KPKD-6" value="obj" style="rounded=0;whiteSpace=wrap;html=1;shadow=0;" parent="1" vertex="1">
          <mxGeometry x="313" y="200" width="40" height="30" as="geometry" />
        </mxCell>
        <mxCell id="uWKodNDqM7YWHI50KPKD-7" value="slab" style="text;html=1;align=center;verticalAlign=middle;resizable=1;points=[];autosize=1;strokeColor=none;fillColor=none;movable=1;rotatable=1;deletable=1;editable=1;locked=0;connectable=1;shadow=0;" parent="1" vertex="1">
          <mxGeometry x="40" y="170" width="50" height="30" as="geometry" />
        </mxCell>
        <mxCell id="uWKodNDqM7YWHI50KPKD-8" value="freelist" style="rounded=0;whiteSpace=wrap;html=1;fillColor=#e1d5e7;strokeColor=#9673a6;shadow=0;" parent="1" vertex="1">
          <mxGeometry x="152" y="200" width="41" height="30" as="geometry" />
        </mxCell>
        <mxCell id="uWKodNDqM7YWHI50KPKD-9" style="edgeStyle=orthogonalEdgeStyle;rounded=1;orthogonalLoop=1;jettySize=auto;html=1;exitX=0.5;exitY=0;exitDx=0;exitDy=0;entryX=1;entryY=0;entryDx=0;entryDy=0;" parent="1" source="uWKodNDqM7YWHI50KPKD-10" target="uWKodNDqM7YWHI50KPKD-8" edge="1">
          <mxGeometry relative="1" as="geometry" />
        </mxCell>
        <mxCell id="uWKodNDqM7YWHI50KPKD-10" value="struct slab" style="rounded=0;whiteSpace=wrap;html=1;fillColor=#e1d5e7;strokeColor=#9673a6;shadow=0;" parent="1" vertex="1">
          <mxGeometry x="112" y="200" width="40" height="30" as="geometry" />
        </mxCell>
        <mxCell id="uWKodNDqM7YWHI50KPKD-11" value="" style="shape=curlyBracket;whiteSpace=wrap;html=1;rounded=1;labelPosition=left;verticalLabelPosition=middle;align=right;verticalAlign=middle;direction=south;rotation=-180;" parent="1" vertex="1">
          <mxGeometry x="112" y="230" width="81" height="20" as="geometry" />
        </mxCell>
        <mxCell id="uWKodNDqM7YWHI50KPKD-12" value="slabmgt" style="text;html=1;align=center;verticalAlign=middle;resizable=0;points=[];autosize=1;strokeColor=none;fillColor=none;" parent="1" vertex="1">
          <mxGeometry x="117.5" y="240" width="70" height="30" as="geometry" />
        </mxCell>
        <mxCell id="uWKodNDqM7YWHI50KPKD-13" value="mem" style="text;html=1;align=center;verticalAlign=middle;resizable=0;points=[];autosize=1;strokeColor=none;fillColor=none;" parent="1" vertex="1">
          <mxGeometry x="135.5" y="170" width="50" height="30" as="geometry" />
        </mxCell>
        <mxCell id="uWKodNDqM7YWHI50KPKD-14" value="color" style="rounded=0;whiteSpace=wrap;html=1;shadow=0;fillStyle=auto;fillColor=#b0e3e6;strokeColor=#0e8088;glass=0;sketch=1;curveFitting=1;jiggle=2;" parent="1" vertex="1">
          <mxGeometry x="50" y="200" width="62" height="30" as="geometry" />
        </mxCell>
        <mxCell id="uWKodNDqM7YWHI50KPKD-15" value="obj" style="rounded=0;whiteSpace=wrap;html=1;shadow=0;movable=1;resizable=1;rotatable=1;deletable=1;editable=1;locked=0;connectable=1;" parent="1" vertex="1">
          <mxGeometry x="613" y="200" width="40" height="30" as="geometry" />
        </mxCell>
        <mxCell id="uWKodNDqM7YWHI50KPKD-16" value="obj" style="rounded=0;whiteSpace=wrap;html=1;shadow=0;movable=1;resizable=1;rotatable=1;deletable=1;editable=1;locked=0;connectable=1;" parent="1" vertex="1">
          <mxGeometry x="653" y="200" width="40" height="30" as="geometry" />
        </mxCell>
        <mxCell id="uWKodNDqM7YWHI50KPKD-17" value="obj" style="rounded=0;whiteSpace=wrap;html=1;shadow=0;movable=1;resizable=1;rotatable=1;deletable=1;editable=1;locked=0;connectable=1;" parent="1" vertex="1">
          <mxGeometry x="693" y="200" width="40" height="30" as="geometry" />
        </mxCell>
        <mxCell id="uWKodNDqM7YWHI50KPKD-18" value="obj" style="rounded=0;whiteSpace=wrap;html=1;shadow=0;movable=1;resizable=1;rotatable=1;deletable=1;editable=1;locked=0;connectable=1;" parent="1" vertex="1">
          <mxGeometry x="733" y="200" width="40" height="30" as="geometry" />
        </mxCell>
        <mxCell id="uWKodNDqM7YWHI50KPKD-19" value="slab" style="text;html=1;align=center;verticalAlign=middle;resizable=1;points=[];autosize=1;strokeColor=none;fillColor=none;movable=1;rotatable=1;deletable=1;editable=1;locked=0;connectable=1;shadow=0;" parent="1" vertex="1">
          <mxGeometry x="410" y="170" width="50" height="30" as="geometry" />
        </mxCell>
        <mxCell id="uWKodNDqM7YWHI50KPKD-20" value="freelist" style="rounded=0;whiteSpace=wrap;html=1;fillColor=#e1d5e7;strokeColor=#9673a6;shadow=0;movable=1;resizable=1;rotatable=1;deletable=1;editable=1;locked=0;connectable=1;" parent="1" vertex="1">
          <mxGeometry x="474.5" y="200" width="41" height="30" as="geometry" />
        </mxCell>
        <mxCell id="uWKodNDqM7YWHI50KPKD-21" style="edgeStyle=orthogonalEdgeStyle;rounded=1;orthogonalLoop=1;jettySize=auto;html=1;exitX=0.5;exitY=0;exitDx=0;exitDy=0;entryX=0;entryY=0;entryDx=0;entryDy=0;movable=1;resizable=1;rotatable=1;deletable=1;editable=1;locked=0;connectable=1;" parent="1" source="uWKodNDqM7YWHI50KPKD-22" target="uWKodNDqM7YWHI50KPKD-15" edge="1">
          <mxGeometry relative="1" as="geometry" />
        </mxCell>
        <mxCell id="uWKodNDqM7YWHI50KPKD-22" value="struct slab" style="rounded=0;whiteSpace=wrap;html=1;fillColor=#e1d5e7;strokeColor=#9673a6;shadow=0;movable=1;resizable=1;rotatable=1;deletable=1;editable=1;locked=0;connectable=1;" parent="1" vertex="1">
          <mxGeometry x="434.5" y="200" width="40" height="30" as="geometry" />
        </mxCell>
        <mxCell id="uWKodNDqM7YWHI50KPKD-23" value="" style="shape=curlyBracket;whiteSpace=wrap;html=1;rounded=1;labelPosition=left;verticalLabelPosition=middle;align=right;verticalAlign=middle;direction=south;rotation=-180;movable=1;resizable=1;rotatable=1;deletable=1;editable=1;locked=0;connectable=1;" parent="1" vertex="1">
          <mxGeometry x="434.5" y="230" width="81" height="20" as="geometry" />
        </mxCell>
        <mxCell id="uWKodNDqM7YWHI50KPKD-24" value="slabmgt" style="text;html=1;align=center;verticalAlign=middle;resizable=1;points=[];autosize=1;strokeColor=none;fillColor=none;movable=1;rotatable=1;deletable=1;editable=1;locked=0;connectable=1;" parent="1" vertex="1">
          <mxGeometry x="440" y="240" width="70" height="30" as="geometry" />
        </mxCell>
        <mxCell id="uWKodNDqM7YWHI50KPKD-25" value="color" style="rounded=0;whiteSpace=wrap;html=1;shadow=0;fillStyle=auto;fillColor=#b0e3e6;strokeColor=#0e8088;glass=0;sketch=1;curveFitting=1;jiggle=2;" parent="1" vertex="1">
          <mxGeometry x="551" y="200" width="62" height="30" as="geometry" />
        </mxCell>
      </root>
    </mxGraphModel>
  </diagram>
</mxfile>
